<svg xmlns="http://www.w3.org/2000/svg" xmlns:xlink="http://www.w3.org/1999/xlink" width="315.481" height="310.74" viewBox="0 0 315.481 310.74"><defs><style>.a{fill:url(#a);}.b{fill:#f9df3b;}.c{fill:url(#b);}.d{fill:url(#c);}.e{fill:url(#d);}.f{fill:#95a5a5;}.g{fill:url(#e);}.h{fill:url(#f);}.i{fill:url(#g);}.j{fill:url(#h);}.k{fill:#e57e25;}.l{fill:#bdc3c7;}.m{fill:url(#i);}.n,.o,.q{fill:#fff;}.n{font-size:13px;}.n,.q{font-family:OCRAExtended, OCR A;}.p{fill:#8ce282;}.q{font-size:16px;}.r,.t{fill:none;}.r{stroke:#fff;}.s{stroke:none;}</style><linearGradient id="a" x1="0.5" x2="0.5" y2="1" gradientUnits="objectBoundingBox"><stop offset="0" stop-color="#f95a3b"/><stop offset="1" stop-color="#ff8d77"/></linearGradient><linearGradient id="b" x1="-0.078" y1="-0.092" x2="1.297" y2="1.329" gradientUnits="objectBoundingBox"><stop offset="0" stop-color="#bdc3c7"/><stop offset="1" stop-color="#5f6264"/></linearGradient><linearGradient id="c" x2="1" y2="1" gradientUnits="objectBoundingBox"><stop offset="0" stop-color="#8ce282"/><stop offset="1" stop-color="#3eb232"/></linearGradient><linearGradient id="d" x1="0.5" x2="0.5" y2="1" gradientUnits="objectBoundingBox"><stop offset="0" stop-color="#7f8c8d"/><stop offset="1" stop-color="#404647"/></linearGradient><linearGradient id="e" x1="0.112" y1="0.08" x2="0.5" y2="1" gradientUnits="objectBoundingBox"><stop offset="0" stop-color="#b0d3f0"/><stop offset="1" stop-color="#4581b2"/></linearGradient><linearGradient id="f" x1="0.5" x2="0.5" y2="1" gradientUnits="objectBoundingBox"><stop offset="0" stop-color="#4c8056"/><stop offset="1" stop-color="#26402b"/></linearGradient><linearGradient id="g" x1="0.5" x2="0.5" y2="1" gradientUnits="objectBoundingBox"><stop offset="0" stop-color="#71c285"/><stop offset="1" stop-color="#396143"/></linearGradient><linearGradient id="h" x1="0.034" y1="0.085" x2="1.315" y2="1.884" gradientUnits="objectBoundingBox"><stop offset="0" stop-color="#e6e7e8"/><stop offset="1" stop-color="#afafaf"/></linearGradient><linearGradient id="i" x2="1.03" y2="1.084" gradientUnits="objectBoundingBox"><stop offset="0" stop-color="#cc4b4c"/><stop offset="1" stop-color="#ff2a2c"/></linearGradient></defs><g transform="translate(-768.519 -4844)"><path class="a" d="M2015.276,4445.679c-24.256,4.294-66.255,46.693-27.392,119.783s78.677,71.006,105.358,71.575,90-23.458,107.6-75.4-6.365-126.381-42.694-141.2-48.095,27.409-82.181,25.181S2039.532,4441.384,2015.276,4445.679Z" transform="matrix(0.848, -0.53, 0.53, 0.848, -3244.688, 2267.34)"/><path class="b" d="M22.735,104.937l2.652,4.848,4.848,2.652-4.848,2.652-2.652,4.848-2.652-4.848-4.848-2.652,4.848-2.652Z" transform="translate(973.765 4826.936)"/><path class="b" d="M32.278,104.937,38.3,115.954,49.32,121.98,38.3,128.005l-6.025,11.017-6.025-11.017L15.235,121.98l11.017-6.025Z" transform="translate(983.765 4800.351)"/><g transform="translate(459 3450.214)"><path class="c" d="M165.065,97.1h9.025c3.319.009,6.006,2.365,6.016,5.275v102.87H17.655V102.378c.008-2.911,2.7-5.269,6.016-5.278Z" transform="translate(402.619 1406.527)"/><path class="d" d="M175.878,132.414h15.364a2.89,2.89,0,0,1,3.073,2.638v87.041H52.966V135.052a2.889,2.889,0,0,1,3.073-2.638Z" transform="translate(377.86 1381.767)"/><path class="e" d="M185.812,434.31v7.033c0,3.885-5.736,7.034-12.814,7.033H12.814C5.737,448.378,0,445.229,0,441.344v-7.033c.005-.97,1.437-1.756,3.2-1.759H182.609C184.376,432.555,185.807,433.34,185.812,434.31Z" transform="translate(409.965 1178.22)"/><path class="f" d="M194.444,438.925H172.882a3.187,3.187,0,0,1-2.851-1.762l-2.307-4.613H199.6l-2.307,4.613A3.188,3.188,0,0,1,194.444,438.925Z" transform="translate(317.837 1178.222)"/><g transform="translate(0 -12)"><path class="g" d="M88.276,264.124V242.641a4.308,4.308,0,0,1,4.3-4.3h25.774v25.779Z" transform="translate(353.101 1307.487)"/><path class="h" d="M103.312,291.075l-10.74,10.74a4.309,4.309,0,0,1-4.3-4.3v-8.588l6.444-6.444Z" transform="translate(353.101 1274.088)"/><path class="i" d="M131.707,310.878v4.3H105.931l15.036-15.036Z" transform="translate(339.741 1260.73)"/><path class="j" d="M211.862,238.345h47.256a4.3,4.3,0,0,1,4.3,4.3v21.483a4.3,4.3,0,0,1-4.3,4.3H211.862Z" transform="translate(259.586 1307.487)"/><path class="k" d="M169.873,260.309a2.954,2.954,0,0,1-.43-.043,1.4,1.4,0,0,1-.387-.129,1.647,1.647,0,0,1-.386-.194,3.185,3.185,0,0,1-.326-.257,3.37,3.37,0,0,1-.258-.326,1.628,1.628,0,0,1-.194-.387,1.367,1.367,0,0,1-.128-.387,2.82,2.82,0,0,1-.043-.429,2.257,2.257,0,0,1,.623-1.525l.326-.258a1.639,1.639,0,0,1,.386-.194,1.368,1.368,0,0,1,.387-.128,2.229,2.229,0,0,1,1.955.58,2.261,2.261,0,0,1,.623,1.529,2.953,2.953,0,0,1-.043.429,1.4,1.4,0,0,1-.129.387,1.638,1.638,0,0,1-.194.387l-.257.326a2.264,2.264,0,0,1-1.525.62Z" transform="translate(292.984 1294.115)"/><g transform="translate(477.891 1554.423)"><path class="l" d="M242.64,273.655h-2.148a2.148,2.148,0,1,0,0,4.3h2.148a2.148,2.148,0,1,0,0-4.3Z" transform="translate(-238.343 -273.654)"/><path class="l" d="M284.63,277.951h23.628a2.148,2.148,0,0,0,0-4.3H284.63a2.148,2.148,0,0,0,0,4.3Z" transform="translate(-271.741 -273.654)"/><path class="l" d="M242.64,308.966h-2.148a2.148,2.148,0,1,0,0,4.3h2.148a2.148,2.148,0,1,0,0-4.3Z" transform="translate(-238.343 -300.373)"/><path class="l" d="M308.259,308.966H284.63a2.148,2.148,0,1,0,0,4.3h23.628a2.148,2.148,0,1,0,0-4.3Z" transform="translate(-271.741 -300.373)"/></g></g><path class="m" d="M326.408,5.275V39.564H311.03l-11,15.826-11-15.826H273.655V5.275A5.291,5.291,0,0,1,278.93,0h42.2a5.291,5.291,0,0,1,5.278,5.275Z" transform="translate(191.031 1483.616)"/></g><text class="n" transform="translate(902 5028)"><tspan x="0" y="0">&lt;/&gt;</tspan></text><rect class="o" width="53" height="2" transform="translate(929 5019)"/><rect class="o" width="53" height="2" transform="translate(929 5025)"/><rect class="o" width="53" height="2" transform="translate(929 5031)"/><rect class="o" width="80" height="2" transform="translate(902 5040)"/><rect class="o" width="80" height="2" transform="translate(902 5046)"/><rect class="p" width="56" height="73" rx="8" transform="translate(999 4973)"/><text class="q" transform="translate(932 4959)"><tspan x="0" y="0">HTML</tspan></text><rect class="o" width="36" height="2" transform="translate(1009 4983)"/><rect class="o" width="36" height="2" transform="translate(1009 4990)"/><rect class="o" width="36" height="2" transform="translate(1009 4997)"/><rect class="o" width="16.644" height="2" transform="translate(1009 5004)"/><rect class="o" width="16.644" height="2" transform="translate(1009 5010)"/><rect class="o" width="16" height="2" transform="translate(1029 5004)"/><rect class="o" width="16" height="2" transform="translate(1029 5010)"/><g class="r" transform="translate(1009.072 5019.397)"><rect class="s" width="36" height="17"/><rect class="t" x="0.5" y="0.5" width="35" height="16"/></g><line class="r" x2="35" y2="16" transform="translate(1009.572 5019.897)"/><line class="r" x1="35" y2="16" transform="translate(1009.572 5019.897)"/></g></svg>